#VRML V2.0 utf8

Shape {

appearance Appearance { material Material {
ambientIntensity 0.3
diffuseColor 0.97647 0.843137 0.172549
specularColor 0.2 0.2 0.2
shininess 0.3
} }

geometry IndexedFaceSet {

creaseAngle 0.5

coord Coordinate { point [
0 5.5 0,
-4.3 2.12132 1.77868,
-4.3 1.66671 1.40559,
-4.3 1.90318 1.58097,
-4.3 2.49441 2.23329,
-4.3 2.64576 2.48581,
-4.3 2.77164 2.75195,
-4.3 2.87082 3.02915,
-4.3 2.98555 3.60595,
-4.3 2.94236 3.31473,
-4.3 2.31903 1.99682,
-4.3 1.61679 3.2303,
-4.3 1.67465 3.392,
-4.3 1.71637 3.55859,
-4.3 0.870854 1.02918,
-4.3 1.41419 1.25424,
-4.3 1.14805 1.12836,
-4.3 0.585271 0.957644,
-4.3 0.294051 0.914446,
-4.3 1.35277 2.78981,
-4.3 1.23744 2.66256,
-4.3 0.824944 2.35664,
-4.3 1.11019 2.54723,
-4.3 0.972248 2.44493,
-4.3 1.45507 2.92775,
-4.3 1.54336 3.07506,
-4.3 0.669696 2.28321,
-4.3 0.507998 2.22535,
-4.3 0.341408 2.18363,
-4.3 0.17153 2.15843,
0 2.12132 1.77868,
0 1.66671 1.40559,
0 1.90318 1.58097,
0 2.49441 2.23329,
0 2.64576 2.48581,
0 2.77164 2.75195,
0 2.87082 3.02915,
0 2.98555 3.60595,
0 2.94236 3.31473,
0 2.31903 1.99682,
0 0.870854 1.02918,
0 1.41419 1.25424,
0 1.14805 1.12836,
0 0.585271 0.957644,
0 0.294051 0.914446,
4.8 0.4 -3.2,
4.8 0.4 0,
7.3 0.4 -3.2,
7.3 0.4 0,
0 5.5 7.8,
0 5 7.8,
0 5 10.5,
-4.3 3 3.9,
-4.3 2.98555 4.19405,
-4.3 2.94236 4.48527,
-4.3 2.87082 4.77085,
-4.3 2.77164 5.04805,
-4.3 2.64576 5.31419,
-4.3 1.74157 3.72847,
-4.3 1.75 3.9,
-4.3 1.74157 4.07153,
-4.3 1.71637 4.24141,
-4.3 1.67465 4.408,
-4.3 1.61679 4.5697,
-4.3 2.49441 5.56671,
-4.3 2.31903 5.80318,
-4.3 2.12132 6.02132,
-4.3 1.90318 6.21903,
-4.3 1.66671 6.39441,
-4.3 1.54336 4.72494,
-4.3 1.45507 4.87225,
-4.3 1.35277 5.01019,
-4.3 1.23744 5.13744,
-4.3 1.11019 5.25277,
-4.3 0.972248 5.35507,
-4.3 0.824944 5.44336,
-4.3 1.41419 6.54576,
-4.3 1.14805 6.67164,
-4.3 0.870854 6.77082,
-4.3 0.669696 5.51679,
-4.3 0.507998 5.57465,
-4.3 0.341408 5.61637,
-4.3 0.17153 5.64157,
-4.3 0.585271 6.84236,
-4.3 0.294051 6.88555,
0 3 3.9,
0 2.98555 4.19405,
0 2.94236 4.48527,
0 2.87082 4.77085,
0 2.77164 5.04805,
0 2.64576 5.31419,
0 2.49441 5.56671,
0 2.31903 5.80318,
0 2.12132 6.02132,
0 1.90318 6.21903,
0 1.66671 6.39441,
0 1.41419 6.54576,
0 1.14805 6.67164,
0 0.870854 6.77082,
0 0.585271 6.84236,
0 0.294051 6.88555,
-4.3 0 0.9,
-4.3 -0.294051 0.914446,
-4.3 -0.585271 0.957644,
-4.3 -0.870854 1.02918,
-4.3 -1.14805 1.12836,
-4.3 -1.41419 1.25424,
-4.3 0 2.15,
-4.3 -0.17153 2.15843,
-4.3 -0.341408 2.18363,
-4.3 -0.507998 2.22535,
-4.3 -0.669696 2.28321,
-4.3 -0.824944 2.35664,
-4.3 -0.972248 2.44493,
-4.3 -1.11019 2.54723,
-4.3 -1.23744 2.66256,
-4.3 -1.35277 2.78981,
-4.3 -1.45507 2.92775,
-4.3 -1.54336 3.07506,
-4.3 -1.66671 1.40559,
-4.3 -1.90318 1.58097,
-4.3 -2.12132 1.77868,
-4.3 -2.31903 1.99682,
-4.3 -1.61679 3.2303,
-4.3 -1.67465 3.392,
-4.3 -1.71637 3.55859,
-4.3 -2.49441 2.23329,
-4.3 -2.64576 2.48581,
-4.3 -2.77164 2.75195,
-4.3 -2.87082 3.02915,
-4.3 -2.94236 3.31473,
-4.3 -2.98555 3.60595,
0 0 0.9,
0 -0.294051 0.914446,
0 -0.585271 0.957644,
0 -0.870854 1.02918,
0 -1.14805 1.12836,
0 -1.41419 1.25424,
0 -1.66671 1.40559,
0 -1.90318 1.58097,
0 -2.12132 1.77868,
0 -2.31903 1.99682,
0 -2.49441 2.23329,
0 -2.64576 2.48581,
0 -2.77164 2.75195,
0 -2.87082 3.02915,
0 -2.94236 3.31473,
0 -2.98555 3.60595,
0 -5.5 0,
4.8 -0.4 -3.2,
4.8 -0.4 0,
7.3 -0.4 -3.2,
7.3 -0.4 0,
-4.3 -0.972248 5.35507,
-4.3 -1.11019 5.25277,
-4.3 -1.45507 4.87225,
-4.3 -1.54336 4.72494,
-4.3 -1.23744 5.13744,
-4.3 -1.35277 5.01019,
-4.3 0 5.65,
-4.3 -0.17153 5.64157,
-4.3 -0.341408 5.61637,
-4.3 -0.507998 5.57465,
-4.3 -0.669696 5.51679,
-4.3 0 6.9,
-4.3 -0.294051 6.88555,
-4.3 -0.585271 6.84236,
-4.3 -0.824944 5.44336,
-4.3 -0.870854 6.77082,
-4.3 -1.14805 6.67164,
-4.3 -1.41419 6.54576,
-4.3 -1.74157 3.72847,
-4.3 -1.75 3.9,
-4.3 -1.74157 4.07153,
-4.3 -1.71637 4.24141,
-4.3 -1.67465 4.408,
-4.3 -1.61679 4.5697,
-4.3 -3 3.9,
-4.3 -2.94236 4.48527,
-4.3 -2.98555 4.19405,
-4.3 -2.77164 5.04805,
-4.3 -2.64576 5.31419,
-4.3 -2.87082 4.77085,
-4.3 -2.12132 6.02132,
-4.3 -2.31903 5.80318,
-4.3 -1.66671 6.39441,
-4.3 -1.90318 6.21903,
-4.3 -2.49441 5.56671,
0 0 6.9,
0 -0.294051 6.88555,
0 -0.585271 6.84236,
0 -0.870854 6.77082,
0 -1.14805 6.67164,
0 -1.41419 6.54576,
0 -3 3.9,
0 -2.94236 4.48527,
0 -2.98555 4.19405,
0 -2.77164 5.04805,
0 -2.64576 5.31419,
0 -2.87082 4.77085,
0 -2.12132 6.02132,
0 -2.31903 5.80318,
0 -1.66671 6.39441,
0 -1.90318 6.21903,
0 -2.49441 5.56671,
0 -5 7.8,
0 -5.5 7.8,
0 -5 10.5,
13.5 1.61679 3.2303,
13.5 1.67465 3.392,
13.5 1.71637 3.55859,
13.5 1.35277 2.78981,
13.5 1.23744 2.66256,
13.5 0.824944 2.35664,
13.5 1.11019 2.54723,
13.5 0.972248 2.44493,
13.5 1.45507 2.92775,
13.5 1.54336 3.07506,
13.5 0.669696 2.28321,
13.5 0.507998 2.22535,
13.5 0.341408 2.18363,
13.5 0.17153 2.15843,
17.9 6.35 -3.2,
18.7 6.35 -3.2,
17.9 5.5 0,
18.7 5.5 0,
20.2 5.5 0,
17.9 3.85 -3.2,
18.7 3.85 -3.2,
17.9 3.85 0,
18.7 3.85 0,
17.9 6.35 1.2,
17.9 5.5 1.2,
18.7 6.35 1.2,
18.7 5.5 1.2,
17.05 0.4 -3.2,
17.05 0.4 0,
19.55 0.4 -3.2,
19.55 0.4 0,
13.5 1.74157 3.72847,
13.5 1.75 3.9,
13.5 1.74157 4.07153,
13.5 1.71637 4.24141,
13.5 1.67465 4.408,
13.5 1.61679 4.5697,
13.5 1.54336 4.72494,
13.5 1.45507 4.87225,
13.5 1.35277 5.01019,
13.5 1.23744 5.13744,
13.5 1.11019 5.25277,
13.5 0.972248 5.35507,
13.5 0.824944 5.44336,
13.5 0.669696 5.51679,
13.5 0.507998 5.57465,
13.5 0.341408 5.61637,
13.5 0.17153 5.64157,
20.2 5.5 7.8,
20.2 5 7.8,
20.2 5 10.5,
13.5 0 2.15,
13.5 -0.17153 2.15843,
13.5 -0.341408 2.18363,
13.5 -0.507998 2.22535,
13.5 -0.669696 2.28321,
13.5 -0.824944 2.35664,
13.5 -0.972248 2.44493,
13.5 -1.11019 2.54723,
13.5 -1.23744 2.66256,
13.5 -1.35277 2.78981,
13.5 -1.45507 2.92775,
13.5 -1.54336 3.07506,
13.5 -1.61679 3.2303,
13.5 -1.67465 3.392,
13.5 -1.71637 3.55859,
17.05 -0.4 -3.2,
17.05 -0.4 0,
19.55 -0.4 -3.2,
19.55 -0.4 0,
17.9 -3.85 -3.2,
18.7 -3.85 -3.2,
17.9 -3.85 0,
18.7 -3.85 0,
17.9 -6.35 -3.2,
18.7 -6.35 -3.2,
17.9 -5.5 0,
18.7 -5.5 0,
20.2 -5.5 0,
17.9 -5.5 1.2,
17.9 -6.35 1.2,
18.7 -5.5 1.2,
18.7 -6.35 1.2,
13.5 -0.972248 5.35507,
13.5 -1.11019 5.25277,
13.5 -1.45507 4.87225,
13.5 -1.54336 4.72494,
13.5 -1.23744 5.13744,
13.5 -1.35277 5.01019,
13.5 0 5.65,
13.5 -0.17153 5.64157,
13.5 -0.341408 5.61637,
13.5 -0.507998 5.57465,
13.5 -0.669696 5.51679,
13.5 -0.824944 5.44336,
13.5 -1.74157 3.72847,
13.5 -1.75 3.9,
13.5 -1.74157 4.07153,
13.5 -1.71637 4.24141,
13.5 -1.67465 4.408,
13.5 -1.61679 4.5697,
20.2 -5 7.8,
20.2 -5.5 7.8,
20.2 -5 10.5
] }

coordIndex [
49,50,257,-1
50,51,258,-1
49,257,256,-1
50,258,257,-1
205,206,310,-1
205,309,207,-1
205,310,309,-1
207,309,311,-1
0,35,36,-1
0,34,35,-1
0,39,33,-1
0,30,39,-1
0,33,34,-1
0,36,38,-1
0,31,32,-1
0,41,31,-1
0,42,41,-1
0,40,42,-1
0,32,30,-1
0,44,43,-1
0,43,40,-1
0,132,44,-1
0,133,132,-1
0,134,133,-1
0,49,224,-1
0,46,150,-1
0,48,46,-1
0,50,49,-1
0,38,50,-1
38,37,50,-1
37,85,50,-1
85,86,50,-1
86,87,50,-1
87,88,50,-1
88,89,50,-1
89,90,50,-1
50,90,91,-1
50,91,92,-1
50,92,93,-1
50,93,94,-1
50,94,95,-1
50,95,96,-1
50,96,97,-1
50,97,98,-1
50,98,99,-1
50,205,51,-1
50,99,205,-1
51,207,258,-1
0,150,148,-1
0,148,134,-1
134,148,135,-1
135,148,136,-1
136,148,137,-1
137,148,138,-1
138,148,139,-1
139,148,140,-1
140,148,141,-1
141,148,142,-1
142,148,143,-1
143,148,144,-1
148,145,144,-1
148,146,145,-1
148,147,146,-1
148,194,147,-1
148,196,194,-1
148,195,196,-1
148,199,195,-1
148,150,284,-1
192,193,205,-1
193,202,205,-1
201,205,200,-1
202,203,205,-1
203,200,205,-1
99,100,205,-1
100,188,205,-1
189,205,188,-1
189,190,205,-1
190,191,205,-1
191,192,205,-1
51,205,207,-1
148,205,199,-1
199,205,197,-1
197,205,198,-1
201,204,205,-1
204,198,205,-1
148,206,205,-1
148,310,206,-1
0,224,229,-1
0,229,236,-1
49,232,224,-1
0,284,48,-1
0,236,275,-1
226,230,225,-1
226,238,230,-1
226,225,234,-1
256,234,232,-1
226,234,256,-1
229,230,236,-1
226,277,238,-1
238,236,230,-1
226,257,286,-1
49,256,232,-1
226,256,257,-1
257,258,311,-1
150,152,284,-1
48,284,152,-1
0,275,284,-1
148,284,287,-1
148,287,310,-1
275,277,280,-1
226,286,277,-1
281,280,277,-1
275,280,284,-1
286,281,277,-1
286,285,281,-1
286,289,285,-1
310,287,289,-1
286,310,289,-1
207,311,258,-1
257,309,286,-1
257,311,309,-1
286,309,310,-1
1,10,30,-1
3,31,2,-1
1,32,3,-1
10,39,30,-1
1,30,32,-1
3,32,31,-1
4,5,33,-1
6,34,5,-1
6,56,7,-1
6,5,57,-1
4,64,5,-1
6,7,35,-1
7,9,36,-1
9,8,38,-1
3,2,11,-1
2,25,11,-1
3,11,12,-1
4,39,10,-1
4,10,65,-1
1,66,10,-1
3,13,58,-1
1,3,67,-1
3,58,59,-1
3,12,13,-1
4,33,39,-1
5,34,33,-1
6,35,34,-1
7,36,35,-1
9,38,36,-1
8,37,38,-1
16,40,14,-1
15,19,2,-1
15,16,22,-1
16,14,21,-1
15,2,41,-1
15,42,16,-1
14,43,17,-1
17,44,18,-1
18,132,101,-1
14,17,27,-1
14,26,21,-1
14,27,26,-1
17,28,27,-1
17,18,29,-1
18,101,29,-1
17,29,28,-1
29,101,107,-1
2,31,41,-1
15,41,42,-1
16,42,40,-1
14,40,43,-1
17,43,44,-1
18,44,132,-1
15,20,19,-1
15,22,20,-1
2,24,25,-1
2,19,24,-1
16,23,22,-1
16,21,23,-1
8,53,52,-1
7,55,9,-1
9,54,8,-1
8,54,53,-1
9,55,54,-1
7,56,55,-1
6,57,56,-1
5,64,57,-1
8,52,37,-1
52,53,85,-1
53,54,86,-1
4,65,64,-1
54,55,87,-1
55,56,88,-1
56,57,89,-1
3,59,68,-1
10,66,65,-1
1,67,66,-1
3,68,67,-1
59,60,68,-1
60,61,68,-1
61,62,68,-1
62,63,68,-1
63,69,68,-1
52,85,37,-1
53,86,85,-1
54,87,86,-1
55,88,87,-1
56,89,88,-1
89,57,90,-1
57,64,90,-1
64,65,91,-1
65,66,92,-1
66,67,93,-1
67,68,94,-1
64,91,90,-1
65,92,91,-1
66,93,92,-1
67,94,93,-1
68,95,94,-1
69,70,76,-1
70,71,76,-1
71,72,76,-1
69,76,68,-1
72,77,76,-1
72,73,77,-1
73,74,77,-1
74,75,78,-1
74,78,77,-1
68,76,95,-1
76,77,96,-1
77,78,97,-1
75,79,78,-1
79,80,83,-1
80,81,84,-1
81,82,84,-1
82,159,164,-1
79,83,78,-1
80,84,83,-1
82,164,84,-1
78,83,98,-1
83,84,99,-1
84,164,100,-1
76,96,95,-1
77,97,96,-1
78,98,97,-1
83,99,98,-1
84,100,99,-1
100,164,188,-1
101,133,102,-1
102,134,103,-1
103,135,104,-1
101,102,108,-1
101,108,107,-1
102,109,108,-1
102,110,109,-1
102,103,110,-1
103,104,111,-1
103,111,110,-1
104,112,111,-1
104,105,113,-1
105,106,115,-1
106,119,118,-1
104,136,105,-1
105,137,106,-1
106,138,119,-1
101,132,133,-1
102,133,134,-1
103,134,135,-1
104,135,136,-1
105,136,137,-1
106,137,138,-1
104,113,112,-1
105,114,113,-1
105,115,114,-1
106,116,115,-1
106,117,116,-1
106,118,117,-1
119,139,120,-1
120,140,121,-1
121,141,122,-1
119,138,139,-1
120,139,140,-1
121,140,141,-1
119,123,118,-1
119,124,123,-1
119,125,124,-1
119,171,125,-1
119,172,171,-1
119,120,186,-1
120,121,183,-1
121,122,184,-1
122,142,126,-1
126,143,127,-1
127,144,128,-1
122,126,187,-1
126,127,181,-1
127,128,180,-1
128,129,182,-1
129,130,178,-1
128,145,129,-1
129,146,130,-1
130,147,131,-1
122,141,142,-1
126,142,143,-1
127,143,144,-1
128,144,145,-1
129,145,146,-1
130,146,147,-1
156,185,155,-1
159,160,164,-1
160,161,166,-1
161,162,166,-1
162,163,168,-1
163,167,168,-1
160,165,164,-1
160,166,165,-1
162,168,166,-1
165,188,164,-1
165,166,189,-1
166,168,190,-1
153,154,169,-1
167,153,169,-1
158,170,157,-1
157,170,154,-1
158,155,185,-1
154,170,169,-1
158,185,170,-1
167,169,168,-1
168,169,191,-1
169,170,192,-1
170,185,193,-1
165,189,188,-1
166,190,189,-1
168,191,190,-1
169,192,191,-1
170,193,192,-1
185,202,193,-1
119,186,172,-1
122,187,184,-1
120,183,186,-1
172,186,173,-1
174,173,186,-1
174,186,175,-1
175,186,176,-1
176,185,156,-1
121,184,183,-1
126,181,187,-1
127,180,181,-1
130,131,179,-1
130,179,178,-1
131,177,179,-1
128,182,180,-1
129,178,182,-1
131,194,177,-1
179,195,178,-1
177,196,179,-1
180,198,181,-1
178,199,182,-1
182,197,180,-1
131,147,194,-1
177,194,196,-1
179,196,195,-1
180,197,198,-1
178,195,199,-1
182,199,197,-1
176,186,185,-1
186,183,203,-1
184,187,201,-1
184,200,183,-1
185,186,202,-1
187,181,204,-1
183,200,203,-1
184,201,200,-1
186,203,202,-1
187,204,201,-1
181,198,204,-1
11,25,208,-1
11,209,12,-1
12,210,13,-1
20,211,19,-1
22,212,20,-1
22,23,214,-1
23,21,215,-1
24,19,216,-1
24,217,25,-1
21,26,213,-1
26,27,218,-1
27,28,219,-1
28,29,220,-1
29,107,221,-1
11,208,209,-1
12,209,210,-1
13,210,239,-1
20,212,211,-1
23,215,214,-1
22,214,212,-1
21,213,215,-1
24,216,217,-1
25,217,208,-1
19,211,216,-1
26,218,213,-1
27,219,218,-1
28,220,219,-1
29,221,220,-1
107,259,221,-1
58,13,239,-1
58,240,59,-1
59,241,60,-1
60,242,61,-1
61,243,62,-1
62,244,63,-1
63,245,69,-1
69,246,70,-1
70,247,71,-1
71,248,72,-1
72,249,73,-1
73,250,74,-1
74,251,75,-1
75,252,79,-1
79,253,80,-1
80,254,81,-1
81,255,82,-1
82,297,159,-1
58,239,240,-1
59,240,241,-1
60,241,242,-1
61,242,243,-1
62,243,244,-1
63,244,245,-1
69,245,246,-1
70,246,247,-1
71,247,248,-1
72,248,249,-1
73,249,250,-1
74,250,251,-1
75,251,252,-1
79,252,253,-1
80,253,254,-1
81,254,255,-1
82,255,297,-1
107,108,259,-1
108,109,260,-1
109,110,261,-1
110,111,262,-1
111,112,263,-1
112,113,264,-1
113,114,265,-1
114,115,266,-1
115,116,267,-1
116,117,268,-1
117,118,269,-1
118,123,270,-1
123,124,271,-1
124,125,272,-1
125,171,273,-1
108,260,259,-1
109,261,260,-1
110,262,261,-1
111,263,262,-1
112,264,263,-1
113,265,264,-1
114,266,265,-1
115,267,266,-1
116,268,267,-1
117,269,268,-1
118,270,269,-1
123,271,270,-1
124,272,271,-1
125,273,272,-1
153,292,154,-1
158,293,155,-1
156,155,294,-1
158,157,296,-1
157,154,295,-1
159,298,160,-1
160,299,161,-1
161,300,162,-1
162,301,163,-1
163,302,167,-1
167,291,153,-1
171,172,303,-1
172,173,304,-1
174,305,173,-1
175,176,307,-1
174,175,306,-1
176,156,308,-1
153,291,292,-1
154,292,295,-1
156,294,308,-1
155,293,294,-1
157,295,296,-1
158,296,293,-1
159,297,298,-1
160,298,299,-1
162,300,301,-1
161,299,300,-1
163,301,302,-1
167,302,291,-1
171,303,273,-1
172,304,303,-1
173,305,304,-1
174,306,305,-1
175,307,306,-1
176,308,307,-1
208,217,244,-1
216,245,217,-1
216,211,246,-1
212,247,211,-1
214,248,212,-1
214,215,249,-1
215,213,250,-1
213,218,251,-1
218,219,252,-1
219,220,253,-1
220,221,254,-1
221,259,255,-1
209,242,210,-1
239,210,241,-1
208,243,209,-1
239,241,240,-1
210,242,241,-1
209,243,242,-1
208,244,243,-1
217,245,244,-1
216,246,245,-1
246,211,247,-1
212,248,247,-1
214,249,248,-1
215,250,249,-1
213,251,250,-1
218,252,251,-1
219,253,252,-1
220,254,253,-1
221,255,254,-1
255,259,297,-1
259,260,297,-1
260,261,298,-1
261,262,299,-1
262,263,300,-1
263,264,301,-1
264,265,302,-1
265,266,291,-1
266,267,292,-1
267,268,295,-1
268,269,296,-1
269,270,293,-1
260,298,297,-1
261,299,298,-1
262,300,299,-1
263,301,300,-1
264,302,301,-1
265,291,302,-1
266,292,291,-1
270,271,294,-1
267,295,292,-1
268,296,295,-1
296,269,293,-1
270,294,293,-1
271,272,308,-1
272,273,307,-1
273,303,306,-1
303,304,305,-1
303,305,306,-1
273,306,307,-1
271,308,294,-1
272,307,308,-1
45,150,46,-1
45,46,47,-1
45,47,151,-1
47,48,151,-1
47,46,48,-1
45,149,150,-1
45,151,149,-1
149,151,152,-1
149,152,150,-1
151,48,152,-1
222,233,223,-1
222,223,228,-1
223,233,228,-1
222,224,231,-1
222,231,233,-1
222,229,224,-1
228,233,225,-1
222,228,227,-1
222,227,229,-1
227,228,230,-1
227,230,229,-1
228,225,230,-1
231,224,232,-1
231,232,233,-1
233,232,234,-1
233,234,225,-1
235,275,236,-1
235,236,237,-1
235,237,276,-1
237,238,276,-1
237,236,238,-1
235,274,275,-1
235,276,274,-1
274,276,277,-1
274,277,275,-1
276,238,277,-1
278,280,279,-1
278,279,283,-1
279,281,283,-1
279,280,281,-1
278,284,280,-1
278,283,282,-1
278,282,288,-1
282,283,288,-1
278,288,284,-1
283,290,288,-1
283,281,285,-1
283,285,290,-1
288,287,284,-1
288,289,287,-1
288,290,289,-1
290,285,289,-1
]

colorPerVertex FALSE

color Color { color [
 0.615686 0.796078 0.317647,
 0.976471 0.843137 0.172549,
 0.976471 0.843137 0.172549, # default colour
] }

colorIndex [
0 0 0 0 0 0 0 0 1 1 1 1 1 1 1 1 1 1 1 1 1 1 1 1 1 1 1 1 1 1 1 1 1 1 1 1 1 1 1 1 1 1 1 1 1 1 1 1 1 1 1 1 1 1 1 1 1 1 1 1 1 1 1 1 1 1 1 1 1 1 1 1 1 1 1 1 1 1 1 1 1 1 1 1 1 1 1 1 1 1 1 1 1 1 1 1 1 1 1 1 1 1 1 1 1 1 1 1 1 1 1 1 1 1 1 1 1 1 1 1 1 1 1 1 1 1 1 1 1 1 1 1 1 1 1 1 1 1 1 1 1 1 1 1 1 1 1 1 1 1 1 1 1 1 1 1 1 1 1 1 1 1 1 1 1 1 1 1 1 1 1 1 1 1 1 1 1 1 1 1 1 1 1 1 1 1 1 1 1 1 1 1 1 1 1 1 1 1 1 1 1 1 1 1 1 1 1 1 1 1 1 1 1 1 1 1 1 1 1 1 1 1 1 1 1 1 1 1 1 1 1 1 1 1 1 1 1 1 1 1 1 1 1 1 1 1 1 1 1 1 1 1 1 1 1 1 1 1 1 1 1 1 1 1 1 1 1 1 1 1 1 1 1 1 1 1 1 1 1 1 1 1 1 1 1 1 1 1 1 1 1 1 1 1 1 1 1 1 1 1 1 1 1 1 1 1 1 1 1 1 1 1 1 1 1 1 1 1 1 1 1 1 1 1 1 1 1 1 1 1 1 1 1 1 1 1 1 1 1 1 1 1 1 1 1 1 1 1 1 1 1 1 1 1 1 1 1 1 1 1 1 1 1 1 1 1 1 1 1 1 1 1 1 1 1 1 1 1 0 0 0 0 0 0 0 0 0 0 0 0 0 0 0 0 0 0 0 0 0 0 0 0 0 0 0 0 0 0 0 0 0 0 0 0 0 0 0 0 0 0 0 0 0 0 0 0 0 0 0 0 0 0 0 0 0 0 0 0 0 0 0 0 0 0 0 0 0 0 0 0 0 0 0 0 0 0 0 0 0 0 0 0 0 0 0 0 0 0 0 0 0 0 0 0 0 0 0 0 0 0 0 0 0 0 0 0 0 0 0 0 0 0 0 0 0 0 0 0 0 0 0 0 0 0 0 0 0 0 0 0 0 0 0 0 0 0 0 0 0 0 0 0 0 0 0 0 0 0 0 0 0 0 0 0 0 0 0 0 0 0 0 0 0 0 0 0 0 0 0 0 0 0 0 0 0 0 0 0 0 0 0 0 0 0 0 0 0 0 1 1 1 1 1 1 1 1 1 1 1 1 1 1 1 1 1 1 1 1 1 1 1 1 1 1 1 1 1 1 1 1 1 1 1 1 1 1 1 1 1 1 1 1 1 1 1 1 1 1 1 1 ]

}

}
