%TF.GenerationSoftware,KiCad,Pcbnew,10.0.6*%
%TF.CreationDate,2026-09-18T21:51:50-05:00*%
%TF.ProjectId,fms-link,666d732d-6c69-46e6-9b2e-6b696361645f,rev?*%
%TF.SameCoordinates,Original*%
%TF.FileFunction,Legend,Bot*%
%TF.FilePolarity,Positive*%
%FSLAX46Y46*%
G04 Gerber Fmt 4.6, Leading zero omitted, Abs format (unit mm)*
G04 Created by KiCad (PCBNEW 10.0.6) date 2026-09-18 21:51:50*
%MOMM*%
%LPD*%
G01*
G04 APERTURE LIST*
%ADD10C,0.150000*%
G04 APERTURE END LIST*
D10*
X22004761Y-11162295D02*
X21547618Y-11162295D01*
X21776190Y-11962295D02*
X21776190Y-11162295D01*
X21280951Y-11543247D02*
X20671428Y-11543247D01*
X20671428Y-11771819D02*
X21280951Y-11771819D01*
X20328571Y-11924200D02*
X20214285Y-11962295D01*
X20214285Y-11962295D02*
X20023809Y-11962295D01*
X20023809Y-11962295D02*
X19947618Y-11924200D01*
X19947618Y-11924200D02*
X19909523Y-11886104D01*
X19909523Y-11886104D02*
X19871428Y-11809914D01*
X19871428Y-11809914D02*
X19871428Y-11733723D01*
X19871428Y-11733723D02*
X19909523Y-11657533D01*
X19909523Y-11657533D02*
X19947618Y-11619438D01*
X19947618Y-11619438D02*
X20023809Y-11581342D01*
X20023809Y-11581342D02*
X20176190Y-11543247D01*
X20176190Y-11543247D02*
X20252380Y-11505152D01*
X20252380Y-11505152D02*
X20290475Y-11467057D01*
X20290475Y-11467057D02*
X20328571Y-11390866D01*
X20328571Y-11390866D02*
X20328571Y-11314676D01*
X20328571Y-11314676D02*
X20290475Y-11238485D01*
X20290475Y-11238485D02*
X20252380Y-11200390D01*
X20252380Y-11200390D02*
X20176190Y-11162295D01*
X20176190Y-11162295D02*
X19985713Y-11162295D01*
X19985713Y-11162295D02*
X19871428Y-11200390D01*
X19071427Y-11886104D02*
X19109523Y-11924200D01*
X19109523Y-11924200D02*
X19223808Y-11962295D01*
X19223808Y-11962295D02*
X19299999Y-11962295D01*
X19299999Y-11962295D02*
X19414285Y-11924200D01*
X19414285Y-11924200D02*
X19490475Y-11848009D01*
X19490475Y-11848009D02*
X19528570Y-11771819D01*
X19528570Y-11771819D02*
X19566666Y-11619438D01*
X19566666Y-11619438D02*
X19566666Y-11505152D01*
X19566666Y-11505152D02*
X19528570Y-11352771D01*
X19528570Y-11352771D02*
X19490475Y-11276580D01*
X19490475Y-11276580D02*
X19414285Y-11200390D01*
X19414285Y-11200390D02*
X19299999Y-11162295D01*
X19299999Y-11162295D02*
X19223808Y-11162295D01*
X19223808Y-11162295D02*
X19109523Y-11200390D01*
X19109523Y-11200390D02*
X19071427Y-11238485D01*
X21528570Y-13562295D02*
X21795237Y-13181342D01*
X21985713Y-13562295D02*
X21985713Y-12762295D01*
X21985713Y-12762295D02*
X21680951Y-12762295D01*
X21680951Y-12762295D02*
X21604761Y-12800390D01*
X21604761Y-12800390D02*
X21566666Y-12838485D01*
X21566666Y-12838485D02*
X21528570Y-12914676D01*
X21528570Y-12914676D02*
X21528570Y-13028961D01*
X21528570Y-13028961D02*
X21566666Y-13105152D01*
X21566666Y-13105152D02*
X21604761Y-13143247D01*
X21604761Y-13143247D02*
X21680951Y-13181342D01*
X21680951Y-13181342D02*
X21985713Y-13181342D01*
X21185713Y-13143247D02*
X20576190Y-13143247D01*
X20576190Y-13371819D02*
X21185713Y-13371819D01*
X20233333Y-13524200D02*
X20119047Y-13562295D01*
X20119047Y-13562295D02*
X19928571Y-13562295D01*
X19928571Y-13562295D02*
X19852380Y-13524200D01*
X19852380Y-13524200D02*
X19814285Y-13486104D01*
X19814285Y-13486104D02*
X19776190Y-13409914D01*
X19776190Y-13409914D02*
X19776190Y-13333723D01*
X19776190Y-13333723D02*
X19814285Y-13257533D01*
X19814285Y-13257533D02*
X19852380Y-13219438D01*
X19852380Y-13219438D02*
X19928571Y-13181342D01*
X19928571Y-13181342D02*
X20080952Y-13143247D01*
X20080952Y-13143247D02*
X20157142Y-13105152D01*
X20157142Y-13105152D02*
X20195237Y-13067057D01*
X20195237Y-13067057D02*
X20233333Y-12990866D01*
X20233333Y-12990866D02*
X20233333Y-12914676D01*
X20233333Y-12914676D02*
X20195237Y-12838485D01*
X20195237Y-12838485D02*
X20157142Y-12800390D01*
X20157142Y-12800390D02*
X20080952Y-12762295D01*
X20080952Y-12762295D02*
X19890475Y-12762295D01*
X19890475Y-12762295D02*
X19776190Y-12800390D01*
X19433332Y-13562295D02*
X19433332Y-12762295D01*
X19433332Y-12762295D02*
X19242856Y-12762295D01*
X19242856Y-12762295D02*
X19128570Y-12800390D01*
X19128570Y-12800390D02*
X19052380Y-12876580D01*
X19052380Y-12876580D02*
X19014285Y-12952771D01*
X19014285Y-12952771D02*
X18976189Y-13105152D01*
X18976189Y-13105152D02*
X18976189Y-13219438D01*
X18976189Y-13219438D02*
X19014285Y-13371819D01*
X19014285Y-13371819D02*
X19052380Y-13448009D01*
X19052380Y-13448009D02*
X19128570Y-13524200D01*
X19128570Y-13524200D02*
X19242856Y-13562295D01*
X19242856Y-13562295D02*
X19433332Y-13562295D01*
X22442857Y-15124200D02*
X22328571Y-15162295D01*
X22328571Y-15162295D02*
X22138095Y-15162295D01*
X22138095Y-15162295D02*
X22061904Y-15124200D01*
X22061904Y-15124200D02*
X22023809Y-15086104D01*
X22023809Y-15086104D02*
X21985714Y-15009914D01*
X21985714Y-15009914D02*
X21985714Y-14933723D01*
X21985714Y-14933723D02*
X22023809Y-14857533D01*
X22023809Y-14857533D02*
X22061904Y-14819438D01*
X22061904Y-14819438D02*
X22138095Y-14781342D01*
X22138095Y-14781342D02*
X22290476Y-14743247D01*
X22290476Y-14743247D02*
X22366666Y-14705152D01*
X22366666Y-14705152D02*
X22404761Y-14667057D01*
X22404761Y-14667057D02*
X22442857Y-14590866D01*
X22442857Y-14590866D02*
X22442857Y-14514676D01*
X22442857Y-14514676D02*
X22404761Y-14438485D01*
X22404761Y-14438485D02*
X22366666Y-14400390D01*
X22366666Y-14400390D02*
X22290476Y-14362295D01*
X22290476Y-14362295D02*
X22099999Y-14362295D01*
X22099999Y-14362295D02*
X21985714Y-14400390D01*
X21642856Y-14743247D02*
X21033333Y-14743247D01*
X21033333Y-14971819D02*
X21642856Y-14971819D01*
X20233333Y-14400390D02*
X20309523Y-14362295D01*
X20309523Y-14362295D02*
X20423809Y-14362295D01*
X20423809Y-14362295D02*
X20538095Y-14400390D01*
X20538095Y-14400390D02*
X20614285Y-14476580D01*
X20614285Y-14476580D02*
X20652380Y-14552771D01*
X20652380Y-14552771D02*
X20690476Y-14705152D01*
X20690476Y-14705152D02*
X20690476Y-14819438D01*
X20690476Y-14819438D02*
X20652380Y-14971819D01*
X20652380Y-14971819D02*
X20614285Y-15048009D01*
X20614285Y-15048009D02*
X20538095Y-15124200D01*
X20538095Y-15124200D02*
X20423809Y-15162295D01*
X20423809Y-15162295D02*
X20347618Y-15162295D01*
X20347618Y-15162295D02*
X20233333Y-15124200D01*
X20233333Y-15124200D02*
X20195237Y-15086104D01*
X20195237Y-15086104D02*
X20195237Y-14819438D01*
X20195237Y-14819438D02*
X20347618Y-14819438D01*
X19852380Y-15162295D02*
X19852380Y-14362295D01*
X19852380Y-14362295D02*
X19395237Y-15162295D01*
X19395237Y-15162295D02*
X19395237Y-14362295D01*
X19014285Y-15162295D02*
X19014285Y-14362295D01*
X19014285Y-14362295D02*
X18823809Y-14362295D01*
X18823809Y-14362295D02*
X18709523Y-14400390D01*
X18709523Y-14400390D02*
X18633333Y-14476580D01*
X18633333Y-14476580D02*
X18595238Y-14552771D01*
X18595238Y-14552771D02*
X18557142Y-14705152D01*
X18557142Y-14705152D02*
X18557142Y-14819438D01*
X18557142Y-14819438D02*
X18595238Y-14971819D01*
X18595238Y-14971819D02*
X18633333Y-15048009D01*
X18633333Y-15048009D02*
X18709523Y-15124200D01*
X18709523Y-15124200D02*
X18823809Y-15162295D01*
X18823809Y-15162295D02*
X19014285Y-15162295D01*
X23071428Y-16943247D02*
X23338094Y-16943247D01*
X23338094Y-17362295D02*
X23338094Y-16562295D01*
X23338094Y-16562295D02*
X22957142Y-16562295D01*
X22652380Y-17362295D02*
X22652380Y-16562295D01*
X22652380Y-16562295D02*
X22385714Y-17133723D01*
X22385714Y-17133723D02*
X22119047Y-16562295D01*
X22119047Y-16562295D02*
X22119047Y-17362295D01*
X21776190Y-17324200D02*
X21661904Y-17362295D01*
X21661904Y-17362295D02*
X21471428Y-17362295D01*
X21471428Y-17362295D02*
X21395237Y-17324200D01*
X21395237Y-17324200D02*
X21357142Y-17286104D01*
X21357142Y-17286104D02*
X21319047Y-17209914D01*
X21319047Y-17209914D02*
X21319047Y-17133723D01*
X21319047Y-17133723D02*
X21357142Y-17057533D01*
X21357142Y-17057533D02*
X21395237Y-17019438D01*
X21395237Y-17019438D02*
X21471428Y-16981342D01*
X21471428Y-16981342D02*
X21623809Y-16943247D01*
X21623809Y-16943247D02*
X21699999Y-16905152D01*
X21699999Y-16905152D02*
X21738094Y-16867057D01*
X21738094Y-16867057D02*
X21776190Y-16790866D01*
X21776190Y-16790866D02*
X21776190Y-16714676D01*
X21776190Y-16714676D02*
X21738094Y-16638485D01*
X21738094Y-16638485D02*
X21699999Y-16600390D01*
X21699999Y-16600390D02*
X21623809Y-16562295D01*
X21623809Y-16562295D02*
X21433332Y-16562295D01*
X21433332Y-16562295D02*
X21319047Y-16600390D01*
X20404761Y-17324200D02*
X20290475Y-17362295D01*
X20290475Y-17362295D02*
X20099999Y-17362295D01*
X20099999Y-17362295D02*
X20023808Y-17324200D01*
X20023808Y-17324200D02*
X19985713Y-17286104D01*
X19985713Y-17286104D02*
X19947618Y-17209914D01*
X19947618Y-17209914D02*
X19947618Y-17133723D01*
X19947618Y-17133723D02*
X19985713Y-17057533D01*
X19985713Y-17057533D02*
X20023808Y-17019438D01*
X20023808Y-17019438D02*
X20099999Y-16981342D01*
X20099999Y-16981342D02*
X20252380Y-16943247D01*
X20252380Y-16943247D02*
X20328570Y-16905152D01*
X20328570Y-16905152D02*
X20366665Y-16867057D01*
X20366665Y-16867057D02*
X20404761Y-16790866D01*
X20404761Y-16790866D02*
X20404761Y-16714676D01*
X20404761Y-16714676D02*
X20366665Y-16638485D01*
X20366665Y-16638485D02*
X20328570Y-16600390D01*
X20328570Y-16600390D02*
X20252380Y-16562295D01*
X20252380Y-16562295D02*
X20061903Y-16562295D01*
X20061903Y-16562295D02*
X19947618Y-16600390D01*
X19452379Y-16981342D02*
X19452379Y-17362295D01*
X19719046Y-16562295D02*
X19452379Y-16981342D01*
X19452379Y-16981342D02*
X19185713Y-16562295D01*
X18919046Y-17362295D02*
X18919046Y-16562295D01*
X18919046Y-16562295D02*
X18461903Y-17362295D01*
X18461903Y-17362295D02*
X18461903Y-16562295D01*
X17623808Y-17286104D02*
X17661904Y-17324200D01*
X17661904Y-17324200D02*
X17776189Y-17362295D01*
X17776189Y-17362295D02*
X17852380Y-17362295D01*
X17852380Y-17362295D02*
X17966666Y-17324200D01*
X17966666Y-17324200D02*
X18042856Y-17248009D01*
X18042856Y-17248009D02*
X18080951Y-17171819D01*
X18080951Y-17171819D02*
X18119047Y-17019438D01*
X18119047Y-17019438D02*
X18119047Y-16905152D01*
X18119047Y-16905152D02*
X18080951Y-16752771D01*
X18080951Y-16752771D02*
X18042856Y-16676580D01*
X18042856Y-16676580D02*
X17966666Y-16600390D01*
X17966666Y-16600390D02*
X17852380Y-16562295D01*
X17852380Y-16562295D02*
X17776189Y-16562295D01*
X17776189Y-16562295D02*
X17661904Y-16600390D01*
X17661904Y-16600390D02*
X17623808Y-16638485D01*
X21642857Y-5028961D02*
X21452381Y-5562295D01*
X21452381Y-5562295D02*
X21261904Y-5028961D01*
X20804761Y-4762295D02*
X20728571Y-4762295D01*
X20728571Y-4762295D02*
X20652380Y-4800390D01*
X20652380Y-4800390D02*
X20614285Y-4838485D01*
X20614285Y-4838485D02*
X20576190Y-4914676D01*
X20576190Y-4914676D02*
X20538095Y-5067057D01*
X20538095Y-5067057D02*
X20538095Y-5257533D01*
X20538095Y-5257533D02*
X20576190Y-5409914D01*
X20576190Y-5409914D02*
X20614285Y-5486104D01*
X20614285Y-5486104D02*
X20652380Y-5524200D01*
X20652380Y-5524200D02*
X20728571Y-5562295D01*
X20728571Y-5562295D02*
X20804761Y-5562295D01*
X20804761Y-5562295D02*
X20880952Y-5524200D01*
X20880952Y-5524200D02*
X20919047Y-5486104D01*
X20919047Y-5486104D02*
X20957142Y-5409914D01*
X20957142Y-5409914D02*
X20995238Y-5257533D01*
X20995238Y-5257533D02*
X20995238Y-5067057D01*
X20995238Y-5067057D02*
X20957142Y-4914676D01*
X20957142Y-4914676D02*
X20919047Y-4838485D01*
X20919047Y-4838485D02*
X20880952Y-4800390D01*
X20880952Y-4800390D02*
X20804761Y-4762295D01*
X20195237Y-5486104D02*
X20157142Y-5524200D01*
X20157142Y-5524200D02*
X20195237Y-5562295D01*
X20195237Y-5562295D02*
X20233333Y-5524200D01*
X20233333Y-5524200D02*
X20195237Y-5486104D01*
X20195237Y-5486104D02*
X20195237Y-5562295D01*
X19395238Y-5562295D02*
X19852381Y-5562295D01*
X19623809Y-5562295D02*
X19623809Y-4762295D01*
X19623809Y-4762295D02*
X19700000Y-4876580D01*
X19700000Y-4876580D02*
X19776190Y-4952771D01*
X19776190Y-4952771D02*
X19852381Y-4990866D01*
M02*
